<?xml version="1.0" encoding="UTF-8" standalone="no"?>
<!-- Created with Inkscape (http://www.inkscape.org/) -->

<svg
   xmlns:dc="http://purl.org/dc/elements/1.1/"
   xmlns:cc="http://creativecommons.org/ns#"
   xmlns:rdf="http://www.w3.org/1999/02/22-rdf-syntax-ns#"
   xmlns:svg="http://www.w3.org/2000/svg"
   xmlns="http://www.w3.org/2000/svg"
   version="1.1"
   width="48"
   height="48"
   id="svg4340">
  <defs
     id="defs4342" />
  <metadata
     id="metadata4345">
    <rdf:RDF>
      <cc:Work
         rdf:about="">
        <dc:format>image/svg+xml</dc:format>
        <dc:type
           rdf:resource="http://purl.org/dc/dcmitype/StillImage" />
        <dc:title></dc:title>
      </cc:Work>
    </rdf:RDF>
  </metadata>
  <g
     id="layer1">
    <path
       d="m 23.773799,35.389285 11.67375,-11.675 -11.67375,-11.676249 c -1.165,-1.16375 -1.165,-3.0499999 0,-4.2149999 1.1675,-1.16625 3.0525,-1.16625 4.2175,0 l 13.72625,13.7237489 c 0.02,0.01875 0.045,0.0325 0.06375,0.05125 0.58375,0.58375 0.8725,1.3475 0.8725,2.1125 0.0037,0.7675 -0.28875,1.535 -0.8725,2.11875 -0.02125,0.0225 -0.0475,0.0375 -0.07,0.05875 l -13.72,13.7175 c -1.165,1.16625 -3.0525,1.16625 -4.2175,0 -1.165,-1.16375 -1.165,-3.0525 0,-4.21625"
       id="path4657"
       style="fill:#ffffff;fill-opacity:1;fill-rule:nonzero;stroke:none" />
    <path
       d="M 7.0770594,35.389285 18.755809,23.714285 7.0770594,12.038036 c -1.165,-1.16375 -1.165,-3.0499999 0,-4.2149999 1.16875,-1.16625 3.0524996,-1.16625 4.2212496,0 l 13.7225,13.7237489 c 0.02,0.01875 0.04625,0.0325 0.065,0.05125 0.58375,0.58375 0.875,1.3475 0.87125,2.1125 0.0038,0.7675 -0.285,1.535 -0.87125,2.11875 -0.0225,0.0225 -0.04875,0.0375 -0.07,0.05875 l -13.72125,13.7175 c -1.165,1.16625 -3.0487496,1.16625 -4.2174996,0 -1.165,-1.16375 -1.165,-3.0525 0,-4.21625"
       id="path4661"
       style="fill:#ffffff;fill-opacity:1;fill-rule:nonzero;stroke:none" />
  </g>
</svg>
