<?xml version="1.0" encoding="utf-8"?>
<!-- Generator: Adobe Illustrator 16.0.0, SVG Export Plug-In . SVG Version: 6.00 Build 0)  -->
<!DOCTYPE svg PUBLIC "-//W3C//DTD SVG 1.1//EN" "http://www.w3.org/Graphics/SVG/1.1/DTD/svg11.dtd">
<svg version="1.1" xmlns="http://www.w3.org/2000/svg" xmlns:xlink="http://www.w3.org/1999/xlink" x="0px" y="0px"
	 width="188.509px" height="43.051px" viewBox="0 0 188.509 43.051" enable-background="new 0 0 188.509 43.051"
	 xml:space="preserve">
<g id="Capa_2">
	<g>
		<path fill-rule="evenodd" clip-rule="evenodd" fill="#FFFFFF" d="M67.222,32.88V16.228H61.76c0,0,0.187,0.786,0.695,1.413
			l-0.137,0.118c-0.559-0.824-2.825-1.963-5.046-1.963c-5.415,0-10,3.221-10,10.25c0,7.659,4.445,9.818,10.092,9.818
			c1.712,0,3.795-0.707,4.49-1.531l0.14,0.12c0,3.61-1.854,5.418-6.665,5.418c-2.176,0-4.445-0.983-4.445-0.983l-1.297,2.946
			c0,0,3.287,1.177,7.869,1.177C61.483,43.012,67.222,41.913,67.222,32.88L67.222,32.88z M61.76,30.799
			c-0.416,0.431-1.757,1.649-4.396,1.649c-3.609,0-4.629-1.452-4.629-6.402c0-4.79,0.602-7.147,4.629-7.147
			c3.055,0,4.396,1.296,4.396,5.577V30.799L61.76,30.799z"/>
		<path fill-rule="evenodd" clip-rule="evenodd" fill="#FFFFFF" d="M92.026,34.411c-1.343-1.177-2.039-2.631-2.039-5.695v-5.85
			c0-4.752-3.144-7.07-9.441-7.07c-5.229,0-8.33,1.609-9.441,3.496l3.844,2.277c0.74-1.453,2.359-2.67,5.553-2.67
			c3.009,0,4.166,1.374,4.166,4.281v0.393h-2.685c-6.342,0-11.155,1.019-11.155,6.205c0,4.202,3.01,6.479,8.192,6.479
			c2.917,0,5.741-1.454,6.713-2.592c0.416,1.022,1.341,2.199,2.407,2.985L92.026,34.411L92.026,34.411z M84.667,30.681
			c-0.693,0.943-3.193,2.435-5.461,2.435c-2.084,0-3.195-0.941-3.195-3.3c0-2.08,1.157-3.101,6.527-3.101h2.129V30.681
			L84.667,30.681z"/>
		<path fill="#FFFFFF" d="M102.849,34.883c-2.359-2.435-2.592-3.967-2.592-7.227V8.846c-3.379,0-5.369,1.334-5.369,3.416v15.435
			c0,4.672,0.879,7.423,3.656,9.543L102.849,34.883L102.849,34.883z"/>
		<path fill-rule="evenodd" clip-rule="evenodd" fill="#FFFFFF" d="M132.501,36.257l-3.888-5.065
			c1.158-1.729,2.362-3.889,2.362-7.031h-4.955c0,1.179-0.37,1.885-0.786,2.987l-8.286-10.016c-0.971-1.178-1.711-2.515-1.711-3.259
			c0-1.219,0.508-2.123,2.73-2.123c2.268,0,2.824,0.904,2.824,2.947h4.858c0-3.691-2.591-6.049-7.821-6.049
			c-4.723,0-7.774,2.159-7.774,5.185c0,1.414,0.601,2.632,1.665,4.044c-4.119,2.082-6.295,4.989-6.295,8.719
			c0,5.458,4.63,9.661,12.219,9.661c3.102,0,5.74-0.786,7.546-1.963c0.831,1.1,2.406,1.963,4.351,1.963H132.501L132.501,36.257z
			 M122.688,31.23c-1.158,0.825-2.777,1.532-5.045,1.532c-4.953,0-6.943-2.866-6.943-6.127c0-2.63,1.157-4.241,3.657-5.538
			L122.688,31.23L122.688,31.23z"/>
		<path fill="#FFFFFF" d="M143.933,34.883c-2.359-2.435-2.592-3.967-2.592-7.227V8.846c-3.379,0-5.369,1.334-5.369,3.416v15.435
			c0,4.672,0.879,7.423,3.658,9.543L143.933,34.883L143.933,34.883z"/>
		<path fill-rule="evenodd" clip-rule="evenodd" fill="#FFFFFF" d="M165.993,23.926c0-5.499-4.395-8.13-9.58-8.13
			c-5.275,0-10.414,2.553-10.414,9.739c0,8.798,5.832,10.722,10.83,10.722c4.352,0,7.594-1.061,8.702-1.689l-1.296-2.788
			c-1.201,0.707-4.166,1.218-5.461,1.218c-5.463,0-7.221-1.807-7.406-6.599h11.572C164.79,26.4,165.993,25.535,165.993,23.926
			L165.993,23.926z M160.673,22.473c0,0.511-0.232,0.981-1.02,0.981h-8.146c0-2.789,1.712-4.556,4.813-4.556
			C159.515,18.899,160.673,20.588,160.673,22.473L160.673,22.473z"/>
		<path fill-rule="evenodd" clip-rule="evenodd" fill="#FFFFFF" d="M188.509,26.597v-1.1c0-7.188-4.723-9.701-10.092-9.701
			c-5.276,0-9.951,2.553-9.951,9.701v1.1c0,7.187,4.721,9.661,9.904,9.661C183.786,36.257,188.509,33.784,188.509,26.597
			L188.509,26.597z M182.952,26.558c0,4.672-0.647,6.478-4.582,6.478c-3.611,0-4.35-2.039-4.35-6.478v-1.023
			c0-4.633,0.555-6.558,4.35-6.558c3.935,0,4.582,1.885,4.582,6.558V26.558L182.952,26.558z"/>
		<g>
			<path fill="#FFFFFF" d="M41.515,7.804C34.931-2.606,7.192-2.551,1.229,7.671c-5.296,9.078,7.491,35.38,20.079,35.38
				C34.161,43.05,47.212,16.814,41.515,7.804z M33.805,32.228c-6.306,6.248-26.411,0.904-29.16-7.916
				C2.267,16.678,16.814,0.206,26.126,2.701C35.245,5.144,39.403,26.681,33.805,32.228z"/>
			<path fill="#FFFFFF" d="M31.916,16.912c1.427,4.58-7.302,14.464-12.889,12.967c-5.472-1.466-7.967-14.389-4.608-17.717
				C18.202,8.414,30.267,11.62,31.916,16.912z"/>
			<path fill="#FFFFFF" d="M14.419,12.163c-3.358,3.328-0.863,16.25,4.608,17.717c5.587,1.497,14.315-8.388,12.889-12.967
				C30.267,11.62,18.202,8.414,14.419,12.163z"/>
		</g>
	</g>
</g>
<g id="Capa_3">
</g>
</svg>
